# xmcd
#
# Track frame offsets: 
#        150
#        14009
#        28681
#        45608
#        62189
#        74959
#        89061
#        104225
#        125235
#        141036
#        152603
#        174648
#
# Disc length: 2478 seconds
#
# Revision: 0
# Processed by: cddbd v1.5.2PL0 Copyright (c) Steve Scherf et al.
# Submitted via: ExactAudioCopyFreeDBPlugin 1.0
#
DISCID=bf09ac0c
DTITLE=Family and Friends - Last Breath Down Here
DYEAR=1900
DGENRE=Bluegrass Gosple
TTITLE0=Last Breath Down Here
TTITLE1=I'll Fly Away
TTITLE2=House Of Gold
TTITLE3=Help Is On The Way
TTITLE4=There Is A God
TTITLE5=He Touched Me
TTITLE6=I Claim The Blood
TTITLE7=Jesus Hold My Hand
TTITLE8=Working On A Building
TTITLE9=Lay Your Burdens At The Feet Of Jesus
TTITLE10=Where The Roses Never Fade
TTITLE11=Old Ship Of Zion
EXTD=
EXTT0=
EXTT1=
EXTT2=
EXTT3=
EXTT4=
EXTT5=
EXTT6=
EXTT7=
EXTT8=
EXTT9=
EXTT10=
EXTT11=
PLAYORDER=
